<?xml version="1.0" encoding="UTF-8"?>
<svg version="1.1" viewBox="0 0 2048 592" width="1280" height="450" xmlns="http://www.w3.org/2000/svg">
<path transform="translate(566,202)" d="m0 0h31l17 3 17 6 14 8 6 4 6-9 8-7 8-4 4-1h16l10 4 10 9 6 9 2 7v14l-5 12-8 9-12 6-11 2h-3v19l-3 14-5 12-9 13-11 10-13 8-11 5-16 5-17 3-12 1h-10l-19-2-13-4-5 1-2 4v12l5 10 8 5 4 1 68 1 14 3 12 5 11 8 5 4 8 10 8 16 3 13v39l-4 16-6 12-7 9-9 9-11 7-12 5-9 2h-73l-12-3-12-5-11-8-8-8-7-11-4-8-4-15-1-13 3-6 5-4 7 1 5 5 1 3 2 16 4 10 8 11 10 7 12 5 6 1h49l9-4 8-7 4-7 3-10v-12l-3-12-6-8-9-6-8-2-54-1-16-4-13-7-10-9-8-9-6-12-2-7-1-11 2-12 5-12 6-11 12-16 2-3-9-7-12-12-7-11-5-11-3-14v-17l4-16 7-14 9-11 8-8 10-7 15-8 15-5zm10 20-11 3-10 6-6 8-2 5-1 17-1 37v38l14 4 17 2h17l9-2 10-6 5-6 2-7 1-45v-45l-12-5-12-3-9-1zm106 0-7 4-4 5-1 3v8l4 6 5 4 6 1 9-3 5-5 1-3v-8l-3-6-5-4-6-2zm-159 21-9 10-6 10-3 9-1 14 3 14 6 12 9 10h1l1-20 1-59zm119 1-1 16-2 64 4-1 9-11 7-14 2-7v-17l-5-14-9-12zm-127 144-2 7v12l4 10 7 9 8 6 8 4 8 2 53 1 11 2 11 4 11 8 8 9 6 13 2 9v20l-1 7 4-4 7-14 2-14v-16l-2-16-4-9-6-9-9-8-12-6-8-2-67-1-12-2-12-6-9-9-4-7z" fill="#070707"/>
<path transform="translate(256,59)" d="m0 0h6l6 4 8 16 23 54 19 44 24 56 22 51 24 56 16 37 4 9v2h46l5 3 3 6-1 6-5 5-4 1h-177l-5-3-3-4-1-5 3-6 5-3h35l-10-22-22-52v-2l-112 1-20 46-12 28 35 1 5 3 3 6-1 6-5 5-4 1h-100l-5-3-3-4v-7l3-5 4-2 44-1 12-27 21-49 16-37 39-91 13-30 21-49 16-37 6-7zm2 35-12 28-14 32 1 5 48 112 8 19 1 1h54l-10-24-13-30-18-42-23-54-18-42-2-5zm-38 89-6 13-23 54-16 37-1 4h93l-3-9-42-98zm79 129 10 24 22 51 1 1h53l-3-9-21-49-8-18z" fill="#080808"/>
<path transform="translate(1203,68)" d="m0 0h74l6 5 1 2v144l13-9 13-6 14-3h32l13 2 12 5 10 6 10 9 8 11 5 11 3 13 1 12v118l17 1 6 4 2 4-1 6-6 5-3 1h-93l-5-3-3-3-1-5 3-6 4-3h15l-1-148-6-12-7-5-3-1h-15l-11 4-9 6-7 7-7 13-2 8-1 128h16l5 3 2 3v7l-5 6-4 1h-93l-6-3-3-5 1-7 6-5 16-1v-300h-12l-6-2-4-4-1-7 3-5zm38 19-1 1v301h23l1-1v-300l-5-1zm128 138 3 14 1 150h24v-128l-4-13-7-11-9-8z" fill="#060606"/>
<path transform="translate(1040,200)" d="m0 0h30l15 3 16 6 13 7 14 11 10 10 8 11 7 12 6 16 3 14 1 8v16l-3 18-5 15-10 19-11 13-10 10-14 9-16 8-14 4-22 3-16-1-16-3-13-5-15-8-12-9-10-10-10-13-8-15-6-18-3-21v-13l3-17 5-15 7-14 8-11 11-12 12-10 16-9 15-6zm6 20-10 4-9 6-6 7-6 12-1 4v129l10 5 14 4 6 1h21l10-3 10-6 9-10 5-12v-89l-1-42-10-5-14-4-8-1zm-51 25-7 7-8 13-5 11-4 15-1 9v11l2 15 4 14 7 14 10 12h1l1-110 1-11zm123 3m1 1v114h2l10-14 6-13 4-14 1-8v-17l-3-16-7-16-9-13z" fill="#080808"/>
<path transform="translate(1821,111)" d="m0 0h77l5 4 1 2v86h58l5 4 1 2v8l-6 6-11 1h-46v130l2 10 5 10 5 6 11 7 10 3h8l12-3 10-6 7-7 6-9 2-2 8-1 5 3 3 7-2 8-8 11-10 9-12 7-15 4h-62l-12-3-16-8-7-6-9-12-5-11-3-15v-133l-5 1h-8l-6-2-5-6 1-9 5-4h18v-71h-13l-6-2-5-6v-7l4-5zm38 21v71h24l1-3v-56l-1-12zm0 91v134l3 10 7 10 9 8 8 4 11 2-8-15-4-14-1-138-1-1z" fill="#040404"/>
<path transform="translate(1704,202)" d="m0 0h14l14 2 18 6 5 3h2l3-7 6-4 7 2 4 5 1 5v35l-2 10-6 4-8-1-4-5-1-10v-9l-4-2-10-6-10-4-9-2h-27l-15 4-14 7-7 6-2 4 1 7 5 6 9 6 18 6 47 14 13 5 13 7 10 8 7 8 5 11 1 4v34l-4 12-8 11-8 7-14 8-12 5-16 4-15 2h-17l-17-2-19-5-17-8-1-1-2 10-4 5-7 1-5-3-3-4v-55l6-7h7l6 5 1 3 1 15 4 6 8 7 12 6 14 4 16 2h13l16-2 12-4 10-7 5-6 1-6-4-6-7-6-9-4-36-10-29-9-12-7-12-12-7-11-4-12v-34l4-12 7-11 10-10 13-8 12-5 18-4zm-53 72v10l4 9 6 8 9 7 8 4 50 13 13 5 13 7 10 9 4 4v-18l-3-9-8-9-11-7-13-5-57-15-16-8-7-5z" fill="#070707"/>
<path transform="translate(743,202)" d="m0 0h69l6 3 2 3v3l13-6 7-2 9-1h20l14 2 13 5 11 7 10 10 7 11 4 10 2 11v9l-3 10-6 8-5 4-10 4h-14l-12-6-6-7-4-9-1-5-1-26-5-10-5-4-6-2-10 1-9 4-7 8-4 12-1 10v130l17 1 5 5v7l-5 6h-98l-6-7 1-7 5-4h16v-167h-15l-6-5-1-7 4-6zm34 21v166l1 1h21l1-166-1-1zm108 4 2 8 1 30 3 6 5 3h8l5-4 2-5v-7l-4-11-6-9-8-7z" fill="#0A0A0A"/>
<path transform="translate(1475,202)" d="m0 0h74l5 4 1 2v181h17l6 5 1 2v6l-5 6-2 1h-97l-6-5-1-2v-6l5-6 2-1h16v-167h-15l-5-3-3-4v-7l5-5zm37 20v167h23v-167z" fill="#0B0B0B"/>
<path transform="translate(1515,68)" d="m0 0h16l10 4 9 8 6 12 1 5v9l-4 13-7 9-9 6-12 3-11-1-10-5-6-5-6-9-3-11v-11l4-10 7-9 9-6zm3 20-7 6-1 2v11l4 6 5 3h9l7-6 1-3v-11l-4-6-4-2z" fill="#0A0A0A"/>
</svg>
